<svg xmlns="http://www.w3.org/2000/svg" viewBox="0 0 64 64">
  <defs>
    <linearGradient id="g" x1="0" y1="0" x2="1" y2="1">
      <stop offset="0" stop-color="#ffd0e6"/>
      <stop offset="1" stop-color="#e85a97"/>
    </linearGradient>
  </defs>
  <rect width="64" height="64" rx="16" fill="url(#g)"/>
  <g fill="#fff">
    <path d="M32 16c3 5 3 9 0 14-3-5-3-9 0-14z" transform="rotate(0 32 32)"/>
    <path d="M32 16c3 5 3 9 0 14-3-5-3-9 0-14z" transform="rotate(72 32 32)"/>
    <path d="M32 16c3 5 3 9 0 14-3-5-3-9 0-14z" transform="rotate(144 32 32)"/>
    <path d="M32 16c3 5 3 9 0 14-3-5-3-9 0-14z" transform="rotate(216 32 32)"/>
    <path d="M32 16c3 5 3 9 0 14-3-5-3-9 0-14z" transform="rotate(288 32 32)"/>
    <circle cx="32" cy="32" r="3.4" fill="#ffe9f3"/>
  </g>
</svg>
